<?xml version="1.0" standalone="no"?>
<!DOCTYPE svg PUBLIC "-//W3C//DTD SVG 20010904//EN"
 "http://www.w3.org/TR/2001/REC-SVG-20010904/DTD/svg10.dtd">
<svg version="1.0" xmlns="http://www.w3.org/2000/svg"
 width="700.000000pt" height="700.000000pt" viewBox="0 0 700.000000 700.000000"
 preserveAspectRatio="xMidYMid meet">
<metadata>
Created by potrace 1.11, written by Peter Selinger 2001-2013
</metadata>
<g transform="translate(0.000000,700.000000) scale(0.100000,-0.100000)"
fill="#000000" stroke="none">
<path d="M1130 6927 c-66 -33 -155 -208 -256 -502 -113 -328 -152 -536 -111
-598 23 -36 74 -67 110 -67 91 0 158 97 246 357 75 222 194 647 193 690 -1 94
-102 160 -182 120z"/>
<path d="M5819 6925 c-66 -36 -73 -121 -30 -342 17 -81 35 -195 41 -252 14
-125 31 -172 77 -210 34 -28 36 -33 44 -116 11 -104 33 -159 82 -202 98 -86
226 -57 257 58 17 61 -21 229 -124 545 -24 77 -65 206 -91 287 -35 111 -54
157 -78 184 -52 59 -123 78 -178 48z"/>
<path d="M4422 6531 c-59 -28 -82 -79 -82 -186 0 -110 23 -158 87 -187 43 -19
53 -20 127 -9 54 7 102 22 146 43 229 116 126 324 -175 353 -48 4 -69 2 -103
-14z"/>
<path d="M5131 6534 c-53 -28 -83 -82 -89 -162 -7 -107 26 -153 137 -186 173
-51 341 30 341 164 0 73 -47 132 -135 171 -68 30 -206 37 -254 13z"/>
<path d="M2288 6520 c-92 -49 -118 -204 -47 -284 73 -84 262 -88 360 -7 135
112 3 312 -206 311 -49 -1 -81 -7 -107 -20z"/>
<path d="M1555 6498 c-40 -31 -75 -113 -75 -175 0 -41 5 -58 27 -84 39 -45 84
-61 198 -66 172 -9 276 31 310 120 23 60 7 119 -44 167 -52 49 -96 60 -253 60
-124 0 -138 -2 -163 -22z"/>
<path d="M2955 6498 c-40 -31 -75 -113 -75 -175 0 -41 5 -58 27 -84 39 -45 84
-61 198 -66 172 -9 276 31 310 120 23 60 7 119 -44 167 -52 49 -96 60 -253 60
-124 0 -138 -2 -163 -22z"/>
<path d="M3779 6507 c-60 -17 -103 -49 -123 -91 -34 -72 -12 -155 52 -200 100
-69 309 -55 377 26 75 89 43 206 -70 254 -52 21 -177 27 -236 11z"/>
<path d="M1011 5598 c-77 -40 -95 -167 -96 -678 0 -404 8 -519 42 -624 11 -33
24 -53 44 -65 16 -9 29 -18 29 -21 0 -3 -13 -13 -29 -22 -35 -20 -55 -76 -73
-212 -18 -126 -18 -911 0 -1021 16 -101 45 -163 80 -172 55 -15 94 6 118 64
70 164 82 1006 19 1252 -14 54 -47 101 -72 101 -7 0 -13 5 -13 10 0 6 6 10 13
10 24 0 58 47 72 100 26 100 38 285 38 590 0 417 -22 614 -75 666 -30 29 -67
37 -97 22z"/>
<path d="M5920 5592 c-20 -9 -44 -34 -57 -56 -43 -79 -48 -142 -48 -626 0
-484 5 -547 48 -626 12 -21 37 -46 55 -55 l33 -17 -35 -20 c-41 -24 -70 -76
-86 -153 -17 -81 -25 -747 -10 -943 6 -89 16 -183 22 -209 12 -57 49 -104 100
-127 l38 -17 -40 -12 c-44 -13 -81 -55 -99 -111 -21 -68 -31 -229 -31 -541 0
-547 25 -651 163 -666 87 -10 147 65 169 212 16 109 16 792 0 900 -16 101 -46
163 -95 195 -37 23 -38 24 -15 33 60 22 99 97 117 228 22 161 33 430 28 659
-6 244 -19 343 -56 441 -20 51 -69 111 -99 121 -8 2 2 14 25 28 92 60 106 152
106 680 0 424 -8 532 -46 610 -40 81 -113 109 -187 72z"/>
<path d="M2353 5376 c-172 -56 -293 -230 -293 -421 0 -178 105 -376 232 -439
84 -42 194 -31 250 24 26 26 33 28 76 23 83 -9 163 40 209 130 48 95 40 208
-19 252 l-24 18 23 45 c27 54 28 71 7 142 -21 69 -112 164 -199 205 -72 34
-193 44 -262 21z m151 -379 c15 -11 50 -32 77 -47 l49 -27 -20 -25 c-11 -15
-33 -53 -48 -86 l-29 -61 -63 63 c-72 72 -89 99 -90 142 0 70 55 89 124 41z"/>
<path d="M4482 5369 c-164 -32 -264 -183 -278 -419 -17 -284 117 -452 361
-454 109 0 166 32 186 106 10 37 11 39 44 32 76 -14 136 28 161 112 20 71 11
125 -28 170 l-31 35 21 22 c44 47 47 140 8 216 -22 41 -111 120 -162 142 -52
23 -165 49 -209 48 -16 -1 -49 -5 -73 -10z m222 -438 l45 -22 -25 -39 c-14
-21 -28 -56 -31 -78 l-5 -39 -37 12 c-51 17 -75 68 -76 161 0 46 5 77 14 87
12 15 16 13 41 -22 16 -21 49 -48 74 -60z"/>
<path d="M3430 4059 c-233 -46 -340 -240 -213 -389 66 -77 128 -89 204 -41
l46 29 -32 -64 c-18 -35 -38 -91 -45 -124 -16 -77 -4 -122 45 -170 33 -32 41
-35 94 -35 47 0 64 5 93 27 43 33 76 96 84 163 8 59 39 117 101 187 108 122
121 241 35 331 -73 78 -258 116 -412 86z"/>
<path d="M1013 2730 c-80 -33 -109 -253 -100 -747 7 -366 22 -483 71 -540 48
-55 133 -25 156 56 31 104 42 262 43 566 1 493 -28 649 -123 669 -14 3 -35 1
-47 -4z"/>
<path d="M2234 2721 c-73 -44 -79 -142 -24 -354 33 -131 206 -681 225 -717 28
-53 103 -100 161 -100 38 0 81 29 100 69 27 57 13 193 -40 401 -78 305 -171
555 -242 648 -54 69 -121 89 -180 53z"/>
<path d="M4680 2718 c-117 -81 -323 -664 -338 -954 -5 -115 6 -163 45 -194
101 -79 202 55 323 427 140 430 179 593 158 659 -26 76 -121 108 -188 62z"/>
<path d="M3022 2240 c-127 -27 -181 -110 -136 -206 22 -46 85 -100 131 -113
106 -30 259 6 336 78 84 77 74 177 -21 223 -35 16 -67 21 -155 24 -62 2 -131
-1 -155 -6z"/>
<path d="M3779 2237 c-92 -26 -139 -84 -139 -169 0 -126 116 -187 275 -144
151 40 225 135 180 230 -28 58 -88 87 -188 92 -49 2 -100 -1 -128 -9z"/>
<path d="M872 1281 c-61 -21 -90 -44 -108 -88 -20 -47 -17 -89 15 -215 34
-129 207 -632 250 -723 32 -70 79 -120 117 -128 48 -9 92 11 122 55 25 38 27
50 26 132 -1 129 -42 280 -185 671 -28 78 -32 102 -31 177 1 85 0 88 -29 113
-37 31 -99 33 -177 6z"/>
<path d="M6096 1255 c-37 -20 -48 -34 -95 -125 -53 -103 -132 -316 -181 -490
-112 -397 -107 -570 15 -570 65 0 117 58 190 213 107 228 265 735 265 849 0
99 -108 168 -194 123z"/>
<path d="M1670 871 c-86 -28 -160 -87 -186 -150 -24 -55 -15 -153 16 -187 41
-43 73 -54 157 -54 188 1 329 74 364 189 21 71 -16 139 -96 180 -40 20 -67 25
-140 28 -49 1 -101 -1 -115 -6z"/>
<path d="M2399 857 c-122 -42 -199 -118 -199 -198 0 -137 231 -205 386 -114
128 75 136 251 14 313 -57 28 -116 28 -201 -1z"/>
<path d="M3760 853 c-73 -37 -112 -93 -118 -168 -4 -47 -1 -61 21 -94 40 -60
102 -85 212 -85 80 -1 96 2 142 27 105 55 140 165 81 254 -38 58 -102 87 -203
91 -72 3 -86 0 -135 -25z"/>
<path d="M4460 853 c-73 -37 -112 -93 -118 -168 -4 -47 -1 -61 21 -94 40 -60
102 -85 212 -85 80 -1 96 2 142 27 105 55 140 165 81 254 -38 58 -102 87 -203
91 -72 3 -86 0 -135 -25z"/>
<path d="M5160 853 c-73 -37 -112 -93 -118 -168 -4 -47 -1 -61 21 -94 40 -60
102 -85 212 -85 80 -1 96 2 142 27 105 55 140 165 81 254 -38 58 -102 87 -203
91 -72 3 -86 0 -135 -25z"/>
<path d="M2999 836 c-90 -32 -135 -94 -127 -176 6 -63 36 -102 100 -131 47
-21 69 -23 183 -24 116 0 135 3 177 23 78 39 100 95 73 189 -12 39 -29 69 -55
95 l-38 38 -138 0 c-87 -1 -152 -6 -175 -14z"/>
</g>
</svg>
